<svg xmlns="http://www.w3.org/2000/svg" viewBox="0 0 512 408"><defs><linearGradient id="a" x1="76.08" x2="523.48" y1="10.8" y2="365.94" gradientUnits="userSpaceOnUse"><stop stop-color="#9013fe"/><stop offset="1" stop-color="#6610f2"/></linearGradient><linearGradient id="b" x1="193.51" x2="293.51" y1="109.74" y2="278.87" gradientUnits="userSpaceOnUse"><stop stop-color="#fff"/><stop offset="1" stop-color="#f1e5fc"/></linearGradient><filter xmlns="http://www.w3.org/2000/svg" id="c" width="197" height="249" x="161.9" y="83.46" color-interpolation-filters="sRGB" filterUnits="userSpaceOnUse"><feFlood flood-opacity="0" result="BackgroundImageFix"/><feColorMatrix in="SourceAlpha" values="0 0 0 0 0 0 0 0 0 0 0 0 0 0 0 0 0 0 127 0"/><feOffset dy="4"/><feGaussianBlur stdDeviation="8"/><feColorMatrix values="0 0 0 0 0 0 0 0 0 0 0 0 0 0 0 0 0 0 0.15 0"/><feBlend in2="BackgroundImageFix" result="effect1_dropShadow"/><feBlend in="SourceGraphic" in2="effect1_dropShadow" result="shape"/></filter></defs><path fill="url(#a)" d="M56.48 53.32C55.52 25.58 77.13 0 106.34 0H405.7c29.2 0 50.82 25.58 49.86 53.32-.93 26.65.27 61.16 8.96 89.31 8.71 28.23 23.41 46.08 47.48 48.37v26c-24.07 2.3-38.77 20.14-47.48 48.37-8.69 28.14-9.9 62.66-8.96 89.31.96 27.74-20.65 53.32-49.87 53.32H106.34c-29.21 0-50.83-25.58-49.86-53.32.93-26.65-.28-61.16-8.96-89.31C38.8 237.14 24.07 219.29 0 217v-26c24.07-2.3 38.8-20.14 47.52-48.37 8.68-28.14 9.89-62.66 8.96-89.31z"/><path fill="url(#b)" stroke="#fff" d="M267.1 312.46c47.3 0 75.8-23.16 75.8-61.36 0-28.87-20.33-49.77-50.53-53.08v-1.2c22.18-3.62 39.6-24.22 39.6-47.23 0-32.78-25.89-54.13-65.33-54.13H177.9v217h89.2zm-54.69-189.48h45.91c24.96 0 39.13 11.13 39.13 31.28 0 21.5-16.48 33.53-46.37 33.53h-38.67v-64.81zm0 161.96V213.5h45.6c32.66 0 49.61 12.03 49.61 35.49s-16.48 35.94-47.6 35.94h-47.6z" filter="url(#c)"/></svg>