<svg xmlns="http://www.w3.org/2000/svg" fill="none" viewBox="0 0 32 33"><path fill="url(#a)" d="M24.52 13.44c-.07.51-.41 1.2-.8 1.81a3.36 3.36 0 0 1-2.14 1.48l-3.9.81a3 3 0 0 0-1.62.94l-2.56 2.86c-.48.53-.81.4-.81-.32 0 .03-1.27 3.29 2.07 5.22 1.29.74 3.14.47 4.43-.27l6.8-3.93a10.31 10.31 0 0 0 4.95-6.83l.06-.34-6.48-1.43Z"/><path fill="url(#b)" d="M22.75 9.52c1.29.74 1.81 1.84 1.81 3.33 0 .2-.01.4-.04.6l2.74 1.17 3.74.25c.48-2.78-.46-5.63-2.14-7.9A15.95 15.95 0 0 0 19.1.8l-1.86 2.42-.6 2.78 6.11 3.52Z"/><path fill="url(#c)" d="M.78 11.55c.15-.43.33-.91.56-1.43a9.9 9.9 0 0 1 6.23-5.4c2.8-.9 5.85-.59 8.39.88l.69.4L19.1.8A16.07 16.07 0 0 0 .8 11.52l-.02.03Z"/><path fill="url(#d)" d="M18.92 25.97a4.16 4.16 0 0 1-4.65-.34l-2.26 1.56-1.95 3.15c2.16 1.8 4.97 2.38 7.78 2.05a15.96 15.96 0 0 0 10.23-5.35L26.9 24.2l-1.88-1.76-6.11 3.52Z"/><path fill="url(#e)" d="M14.27 25.63a4.15 4.15 0 0 1-1.58-3.25V11.57c0-.6.18-.7.7-.4-.8-.47-2.67-2.06-4.97-.74a4.86 4.86 0 0 0-2.34 3.86v7.86c0 2.94 1.52 6 3.71 7.96l.27.23 4.21-4.7Z"/><path fill="url(#f)" d="M27.91 5.81c.3.34.63.74.96 1.2a10.3 10.3 0 0 1-3.16 15.04l-.68.4 3.04 4.59A16.05 16.05 0 0 0 27.9 5.8Z"/><path fill="url(#g)" d="M6.34 14.3a4.15 4.15 0 0 1 2.62-3.86l-.22-2.73-1.52-3.13a10.31 10.31 0 0 0-5.9 5.57 15.92 15.92 0 0 0-.47 11.53l3.02.4 2.47-.74v-7.05Z"/><path fill="url(#h)" d="M8.96 10.44a4.16 4.16 0 0 1 3.62.26l.1.06 8.9 5.13c.63.36.57.72-.14.87l.52-.11c.67-.14 1.29-.49 1.76-1a4.15 4.15 0 0 0-.97-6.4l-6.8-3.93a10.33 10.33 0 0 0-8.4-.86l-.33.12 1.74 5.86Z"/><path fill="url(#i)" d="M19.32 32.15c-.44.1-.95.18-1.51.24A10.33 10.33 0 0 1 6.34 22.13v-.8l-5.5.35A16.07 16.07 0 0 0 19.3 32.16h.03Z"/><defs><linearGradient id="a" x1="20.06" x2="23.21" y1="24.27" y2="13.31" gradientUnits="userSpaceOnUse"><stop stop-color="#1724C9"/><stop offset="1" stop-color="#1C64F2"/></linearGradient><linearGradient id="b" x1="27.31" x2="19.03" y1="10.9" y2="2.65" gradientUnits="userSpaceOnUse"><stop stop-color="#1C64F2"/><stop offset="1" stop-color="#0092FF"/></linearGradient><linearGradient id="c" x1="16.16" x2="3.67" y1="5.52" y2="6.31" gradientUnits="userSpaceOnUse"><stop stop-color="#0092FF"/><stop offset="1" stop-color="#45B2FF"/></linearGradient><linearGradient id="d" x1="15.32" x2="26.54" y1="29.16" y2="26.14" gradientUnits="userSpaceOnUse"><stop stop-color="#1C64F2"/><stop offset="1" stop-color="#0092FF"/></linearGradient><linearGradient id="e" x1="7.27" x2="15.23" y1="16.18" y2="24.43" gradientUnits="userSpaceOnUse"><stop stop-color="#1724C9"/><stop offset="1" stop-color="#1C64F2"/></linearGradient><linearGradient id="f" x1="25.45" x2="31.01" y1="22.14" y2="10.93" gradientUnits="userSpaceOnUse"><stop stop-color="#0092FF"/><stop offset="1" stop-color="#45B2FF"/></linearGradient><linearGradient id="g" x1="5.36" x2="2.39" y1="9.63" y2="20.81" gradientUnits="userSpaceOnUse"><stop stop-color="#1C64F2"/><stop offset="1" stop-color="#0092FF"/></linearGradient><linearGradient id="h" x1="20.54" x2="9.68" y1="9.1" y2="11.8" gradientUnits="userSpaceOnUse"><stop stop-color="#1724C9"/><stop offset="1" stop-color="#1C64F2"/></linearGradient><linearGradient id="i" x1="6.41" x2="13.33" y1="21.86" y2="32.27" gradientUnits="userSpaceOnUse"><stop stop-color="#0092FF"/><stop offset="1" stop-color="#45B2FF"/></linearGradient></defs></svg>