<svg xmlns="http://www.w3.org/2000/svg" xmlns:xlink="http://www.w3.org/1999/xlink" viewBox="0 0 135.47 135.47">
    <defs>
        <linearGradient id="a">
            <stop offset="0" stop-color="#ff31fd"/>
            <stop offset="1" stop-color="#00a7fd" stop-opacity=".56"/>
        </linearGradient>
        <linearGradient xlink:href="#a" id="b" x1="35.76" x2="173.36" y1="54.49" y2="192.44"
                        gradientUnits="userSpaceOnUse"/>
    </defs>
    <path fill="url(#b)"
          d="M104.9 58.63c-37.4 0-67.73 26.54-67.73 59.27 0 18.54 9.76 35.08 25 45.95a8.32 8.32 0 0 1 3.58 7.91l-2.5 17.52a4.2 4.2 0 0 0 4.16 4.81h20.56v-14.81c0-1.17.95-2.12 2.12-2.12h4.23c1.17 0 2.12.95 2.12 2.12v14.81h16.93v-14.81c0-1.17.95-2.12 2.12-2.12h4.23c1.16 0 2.12.95 2.12 2.12v14.81h20.56a4.2 4.2 0 0 0 4.15-4.81l-2.49-17.52c-.45-3.1 1-6.08 3.57-7.9 15.24-10.88 25-27.42 25-45.97 0-32.72-30.31-59.26-67.73-59.26zm-25.4 84.66c-9.34 0-16.93-7.59-16.93-16.93s7.6-16.93 16.93-16.93 16.94 7.6 16.94 16.93-7.6 16.94-16.94 16.94zm50.8 0c-9.34 0-16.93-7.59-16.93-16.93s7.6-16.93 16.93-16.93 16.94 7.6 16.94 16.93-7.6 16.94-16.94 16.94z"
          transform="translate(-37.17 -58.63)"/>
</svg>