<svg xmlns="http://www.w3.org/2000/svg" fill="none" class="c-PJLV c-PJLV-isACLx-size-md c-PJLV-fVifuS-color-text1 c-PJLV-ijiyhIq-css" viewBox="0 0 48 48"><path fill="#D9D9D9" d="m8.63 9.52 14.75-4.38a3.97 3.97 0 0 1 2.25-.01c2.67.78 9.5 2.79 14.65 4.37.83.26 1.4 1.05 1.38 1.93-.48 24.84-13.15 30.51-16.4 31.56-.5.16-1.01.16-1.5 0-3.27-1.04-16.04-6.7-16.54-31.53a1.99 1.99 0 0 1 1.41-1.94Z"/><mask id="a" width="35" height="40" x="7" y="4" maskUnits="userSpaceOnUse"><path fill="#D9D9D9" d="m8.63 9.52 14.75-4.38a3.97 3.97 0 0 1 2.25-.01c2.67.78 9.5 2.79 14.65 4.37.83.26 1.4 1.05 1.38 1.93-.48 24.84-13.15 30.51-16.4 31.56-.5.16-1.01.16-1.5 0-3.27-1.04-16.04-6.7-16.54-31.53a1.99 1.99 0 0 1 1.41-1.94Z"/></mask><g mask="url(#a)"><path fill="url(#b)" d="m24.5 23.46-.26-19.34 18.52 5-18.25 14.34Z"/><path fill="url(#c)" d="M24.5 23.46V4.8L6.8 9.53l-2.44 11.5 7.7 12.03 12.45-9.6Z"/><path fill="url(#d)" d="M42.22 9.53 11.8 33.06v10.68H41.8l.41-34.2Z"/></g><defs><linearGradient id="b" x1="24.51" x2="37.49" y1="4.8" y2="13.32" gradientUnits="userSpaceOnUse"><stop stop-color="#19AAE8"/><stop offset="1" stop-color="#1EA5F1"/></linearGradient><linearGradient id="c" x1="7.33" x2="24.51" y1="9.94" y2="23.19" gradientUnits="userSpaceOnUse"><stop stop-color="#2BE2B8"/><stop offset="1" stop-color="#19B9E3"/></linearGradient><linearGradient id="d" x1="41.54" x2="19.1" y1="9.67" y2="40.77" gradientUnits="userSpaceOnUse"><stop stop-color="#925CDF"/><stop offset="1" stop-color="#CC42E5"/></linearGradient></defs></svg>