<svg xmlns="http://www.w3.org/2000/svg" preserveAspectRatio="xMidYMid" viewBox="0 0 256 256"><defs><radialGradient id="a" cx="33.43%" cy="32.39%" r="64.02%" fx="33.43%" fy="32.39%" gradientTransform="rotate(55 .33 .32)"><stop offset="0%" stop-color="#FFF" stop-opacity=".9"/><stop offset="100%" stop-color="#FF6D6D"/></radialGradient></defs><circle cx="127.77" cy="127.77" r="127.77" fill="#FFF"/><path fill="#1B1A22" d="M73.85 81.97c-.61.13-1.11.45-1.54 1.03-.44.63-.6 1.66-.37 2.35.2.6 1.23 1.8 2.37 2.63a196.97 196.97 0 0 0-4.36 5.98c-7.66 11.1-12.15 21.24-12.72 28.56-.3 3.95.46 6.72 2.28 8.87 1.35 1.58 2.92 2.48 5.46 3.02 2.09.45 5.28.43 8.5-.07-2.03 2.9-4.92 7.36-6.4 9.89-2.47 4.2-4.98 9.58-5.93 12.66-1.67 5.36-1.88 9.76-.77 13.96a14.27 14.27 0 0 0 3.26 6.25 12.02 12.02 0 0 0 5.78 3.39c3.86 1.04 9.51.74 16.65-.94 1.5-.35 3.82-1 5.54-1.5-1.54 5.37-1.37 10.27.36 13.8a13.93 13.93 0 0 0 3.05 3.74c5.57 4.16 17.28 4 32.99-.93 1.26-.39 4.8-1.62 6.58-2.26 1.2 1.61 2.34 2.25 4.95 2.56 1.7.19 3.1-.08 4.42-.84.6-.36.96-.7 1.16-1.02.33-.52.39-1.06.16-1.7-.22-.6-.53-.97-1.1-1.22a4.8 4.8 0 0 0-1.57-.31c-.6-.04-.82-.06-1.14-.3l.1-.08c2.75-1.16 8.69-4.13 12.35-6.17 13.4-7.48 27.73-18.02 37.27-27.43 8.64-8.51 17.02-19.14 18.75-23.7.53-1.36.67-2.78.45-3.88-.19-.87-.3-1.1-1.12-2.1-.88-1.04-1.07-1.14-1.88-1.46-2.7-1.07-6.88.1-15.1 5.13-10.53 6.43-26.15 18.36-37.16 28.4-10.84 9.87-17.96 18.5-20.6 24.84-.32.76-.3 1.12-.47 1.2-.17.1-1.64.67-3.25 1.3-8.87 3.45-16.6 5.42-22.38 5.68-1.6.07-4.13-.1-5.4-.37a7.18 7.18 0 0 1-2.83-1.2c-.6-.57-.85-1.53-.89-2.73-.05-1.5.25-3.4.9-5.6a59.4 59.4 0 0 1 2.73-6.8l1.8-.97a213.6 213.6 0 0 0 30.89-14.95c13.85-8.08 29.8-19.3 44.08-31.02 8.51-6.98 13.09-11.39 17.43-16.75 3.38-4.18 6.13-8.9 6.75-11.52.45-1.87.4-3.54-.1-4.95a6.6 6.6 0 0 0-2.99-3.56c-3.81-2.24-10.73-1.35-20.08 2.86-8.84 3.99-19.9 10.86-32.39 20.28a342.94 342.94 0 0 0-23.42 19.48c-14.1 13.21-23.74 24.7-29.1 34.6l-.36.67c-4.73 1.78-12.05 3.85-15.7 4.47-3.06.51-6 .65-7.74.3a4.5 4.5 0 0 1-2.48-1.16c-.63-.63-1-1.54-1.28-2.75-.42-1.89-.3-5 .27-7.3 1.74-7.09 7.48-17.27 16.25-28.96l1.9-2.53 1.97-.76c13-4.99 29.12-13.96 43.43-24.17a203.98 203.98 0 0 0 22.24-18.36c4.6-4.5 8.29-8.65 11.13-12.53 2.5-3.43 4.08-6.32 4.79-8.78.79-2.75.54-5-.6-6.9a6.28 6.28 0 0 0-3.85-2.88 10.47 10.47 0 0 0-5.43.16c-6 1.62-14.94 6.99-27.71 16.73a451.3 451.3 0 0 0-16.78 14.08 333.04 333.04 0 0 0-34.4 36.37l-1.86 2.3-1.04.31a44.14 44.14 0 0 1-8.92 1.7c-1.44.08-3.34-.12-4.16-.5-.44-.19-.5-.24-.76-.59-.45-.61-.56-1.2-.6-2.39-.18-5.16 3.4-13.9 9.34-23.16a127.2 127.2 0 0 1 7.64-10.61l1.35-1.68c4.25-1.32 8.48-4 14.84-9.34 7.3-6.15 14.44-13.88 16.43-16.55 2.31-3.1 3.2-6.2 2.82-7.42a3.7 3.7 0 0 0-1.41-1.86 3.34 3.34 0 0 0-2.22-.6c-1.12.1-3.7 1.48-7.11 3.96a216.68 216.68 0 0 0-12.07 9.96c-5.36 4.85-8.9 8.4-13.3 13.36l-1.4 1.56a6.7 6.7 0 0 1-3.3-.13 3.82 3.82 0 0 0-1.87-.15Zm53.36 6.6c3.72-3.23 5.29-4.53 10.4-8.65 6.16-4.96 12.94-9.66 17.91-12.44 2.44-1.36 4.72-2.43 6.5-2.8-.41.87-1.04 1.95-1.72 2.98-3.31 4.96-8.35 10.6-15.91 17.83a378.5 378.5 0 0 1-16.51 13.85 215.91 215.91 0 0 1-27.49 17.68c-1.15.61-2.54 1.33-3.87 2a336.09 336.09 0 0 1 30.7-30.46Zm47.56 17.95c9.6-5.8 17.79-9.19 21.68-9.37-.1.32-.23.73-.39 1.08-1.51 3.59-5.77 8.8-11.85 14.62a344.84 344.84 0 0 1-16.82 14.04c-21.8 16.7-39.69 27.96-57.09 35.85 3.05-4.12 7.33-9.2 11.39-13.45 7.6-7.99 16.94-16.44 26.27-23.8 10.37-8.19 18.67-14.05 26.81-18.97Zm5.8 41.96c7.12-5.58 13.48-10.04 18.18-12.79-.44.6-.9 1.2-1.34 1.76-7.5 9.5-16.46 18.03-27.66 26.26a193.9 193.9 0 0 1-19.99 12.94c3.81-4.38 8.64-9.18 15.2-15.13a695.26 695.26 0 0 1 15.6-13.04Z"/><ellipse cx="127.88" cy="127.96" fill="url(#a)" rx="41.55" ry="41.63"/><path fill="#1B1A22" d="M207.38 124.79c.81.32 1 .42 1.88 1.47.83.99.93 1.22 1.12 2.09.22 1.1.08 2.52-.45 3.88-1.73 4.56-10.1 15.19-18.75 23.7-9.54 9.42-23.86 19.95-37.27 27.43-3.66 2.04-9.6 5.01-12.35 6.17l-.1.09-6.88 2.82c-.7.25-1.66.6-2.65.94l-.67.23c-1.32.46-2.6.89-3.26 1.1-15.71 4.92-27.42 5.08-33 .92l5.2-5.86c.48.46 1.78.97 2.83 1.2 1.26.27 3.8.44 5.4.37 5.77-.26 13.5-2.23 22.37-5.68 1.61-.63 3.08-1.2 3.25-1.3l15.71-7.67a193.9 193.9 0 0 0 20-12.93c11.19-8.24 20.15-16.77 27.65-26.27.44-.55.9-1.16 1.34-1.76l8.63-10.94Zm-6.59-33.87a6.6 6.6 0 0 1 2.99 3.56c.5 1.41.55 3.09.1 4.95-.62 2.63-3.37 7.34-6.75 11.52-4.34 5.36-8.92 9.77-17.43 16.75-14.28 11.73-30.23 22.94-44.08 31.02a213.61 213.61 0 0 1-30.9 14.95l-1.8.97-11.32 3.45c-1.72.5-4.03 1.15-5.54 1.5-7.14 1.68-12.8 1.98-16.65.94a12.02 12.02 0 0 1-5.78-3.4 14.27 14.27 0 0 1-3.26-6.23l7.87-1.23c.28 1.21.65 2.12 1.28 2.76.6.61 1.41.95 2.48 1.16 1.73.34 4.68.2 7.73-.3 3.66-.63 10.98-2.7 15.71-4.48l14.86-6.03c17.4-7.89 35.3-19.14 57.1-35.85a344.9 344.9 0 0 0 16.81-14.03c6.08-5.82 10.34-11.04 11.85-14.63.16-.35.3-.76.39-1.08l4.34-6.27ZM165.77 56.5a6.25 6.25 0 0 1 3.86 2.88c1.13 1.9 1.38 4.15.59 6.9-.71 2.46-2.29 5.36-4.79 8.79a103.26 103.26 0 0 1-11.13 12.52 203.97 203.97 0 0 1-22.24 18.36c-14.3 10.21-30.44 19.19-43.43 24.17l-1.96.76-6.92 2.1-6.29 1.4c-3.21.5-6.4.52-8.49.07-2.54-.54-4.11-1.44-5.46-3.02-1.82-2.15-2.59-4.92-2.28-8.87l6.89 2.11c.03 1.18.14 1.78.59 2.4.25.34.32.4.76.59.82.37 2.72.57 4.16.49.96-.06 2.53-.33 4.1-.64l.51-.1c2.07-.43 4-.88 4.28-.95h.03l17.97-7.4.04-.02c.34-.17 2.76-1.4 3.83-1.98a215.9 215.9 0 0 0 27.49-17.68 378.47 378.47 0 0 0 16.5-13.85c7.57-7.22 12.6-12.87 15.92-17.83.68-1.03 1.08-2.1 1.72-2.97l3.75-8.23Z"/></svg>